<?xml version="1.0" standalone="no"?>
<!DOCTYPE svg PUBLIC "-//W3C//DTD SVG 20010904//EN"
 "http://www.w3.org/TR/2001/REC-SVG-20010904/DTD/svg10.dtd">
<svg version="1.0" xmlns="http://www.w3.org/2000/svg"
 width="1280.000000pt" height="1149.000000pt" viewBox="0 0 1280.000000 1149.000000"
 preserveAspectRatio="xMidYMid meet">
<g transform="translate(0.000000,1149.000000) scale(0.100000,-0.100000)"
fill="#000000" stroke="none">
<path d="M6840 11471 c-198 -63 -315 -206 -335 -409 -14 -139 38 -276 142
-377 l63 -61 -23 -33 c-14 -21 -41 -40 -77 -54 -37 -15 -61 -32 -75 -54 -11
-18 -41 -41 -68 -54 -104 -49 -103 -158 2 -207 35 -16 76 -76 65 -94 -3 -4
-45 -8 -94 -8 -88 0 -90 0 -167 -47 -112 -66 -113 -68 -113 -128 0 -59 -8 -69
-64 -80 -80 -14 -306 -89 -486 -160 -247 -98 -447 -189 -930 -425 -412 -201
-549 -264 -745 -343 -456 -183 -899 -257 -1540 -257 -502 0 -742 27 -1047 116
-50 14 -97 23 -108 19 -33 -10 -80 -83 -80 -122 0 -20 -9 -46 -20 -61 -19 -23
-20 -34 -14 -126 6 -90 10 -102 32 -121 27 -23 25 -59 -2 -49 -21 8 -31 -20
-52 -143 -12 -68 -23 -102 -36 -111 -20 -15 -32 -55 -48 -160 -12 -72 -11 -73
15 -99 28 -29 29 -59 3 -57 -21 2 -31 -27 -53 -151 -10 -55 -24 -98 -35 -110
-20 -22 -34 -68 -49 -164 -10 -62 -9 -65 14 -87 29 -27 33 -54 7 -54 -22 0
-35 -38 -53 -159 -10 -61 -19 -91 -35 -108 -23 -25 -39 -81 -50 -179 -6 -49
-5 -57 15 -70 24 -17 28 -54 6 -54 -21 0 -32 -32 -50 -146 -11 -71 -22 -104
-39 -124 -16 -20 -28 -56 -40 -118 -19 -104 -20 -122 -6 -122 13 0 42 -58 35
-70 -3 -5 -13 -6 -22 -3 -11 5 -14 3 -8 -6 4 -8 18 -11 34 -8 50 10 56 -2 43
-90 -7 -43 -15 -88 -18 -100 -6 -21 -4 -21 20 -10 26 12 32 29 52 152 3 22 19
65 35 95 29 58 56 192 46 232 -9 35 -39 65 -67 70 -22 3 -25 7 -23 43 1 22 4
70 5 107 3 57 6 68 23 72 54 15 60 -1 40 -114 -8 -46 -14 -85 -12 -86 1 -1 12
2 23 6 18 7 25 24 39 101 11 62 24 102 39 119 15 18 26 57 40 133 l18 108 -26
34 c-14 18 -26 38 -26 43 0 6 -8 8 -18 5 -35 -9 -41 16 -25 106 17 98 27 121
52 121 25 0 31 -19 21 -66 -4 -22 -11 -61 -15 -87 -6 -47 -6 -48 17 -45 21 3
24 12 39 101 12 69 23 105 37 120 23 25 52 146 52 220 0 41 -3 49 -25 59 -13
6 -22 15 -19 20 3 4 11 5 17 1 7 -4 6 1 -2 10 -7 10 -19 17 -25 16 -44 -5 -49
13 -31 107 8 42 13 80 12 86 -3 16 28 32 48 24 19 -7 19 -13 -1 -148 -6 -44
-5 -46 15 -41 12 3 23 15 26 27 2 11 11 55 19 96 8 41 21 79 29 85 17 12 37
69 37 104 0 14 5 33 10 41 16 24 29 -5 23 -51 -3 -21 -2 -54 1 -73 6 -29 11
-36 30 -36 31 0 43 -16 56 -75 24 -110 29 -123 53 -127 22 -4 23 -2 19 47 -8
96 28 74 44 -26 5 -32 4 -39 -10 -39 -9 0 -16 -8 -16 -20 0 -27 -29 -26 -76 2
l-36 21 -19 -24 c-11 -14 -16 -30 -11 -39 4 -8 8 -71 9 -139 1 -68 4 -130 7
-137 8 -21 44 -17 56 6 9 17 14 19 33 9 28 -15 37 -28 37 -55 0 -12 6 -27 14
-33 7 -6 19 -38 26 -71 12 -56 33 -91 46 -77 3 3 -3 46 -15 95 -12 49 -21 95
-21 101 0 6 18 11 43 11 40 0 45 3 60 35 9 20 17 46 17 58 0 39 -46 194 -66
223 -10 16 -30 74 -44 129 -25 98 -26 100 -52 97 -20 -3 -28 1 -28 12 0 10 9
16 23 16 25 0 47 43 47 94 0 48 -40 190 -65 227 -13 20 -29 65 -36 100 -16 84
-39 131 -59 119 -12 -7 -12 -18 3 -82 21 -89 21 -108 2 -108 -8 0 -15 -8 -15
-18 0 -10 -4 -22 -9 -27 -5 -6 -12 -25 -16 -42 -5 -26 -3 -33 9 -33 9 0 16 5
16 10 0 19 40 50 65 50 26 0 29 -7 58 -135 19 -85 15 -95 -39 -96 -24 -1 -50
-2 -56 -3 -8 -1 -16 16 -19 39 -3 22 -13 54 -22 70 -9 17 -17 38 -17 48 0 9
-4 17 -9 17 -16 0 -23 38 -11 60 9 17 8 20 -13 20 -27 0 -47 17 -47 40 0 13
10 17 45 17 25 0 47 2 49 4 2 2 -3 34 -11 72 -17 77 -12 111 20 129 12 7 22
18 23 23 1 19 15 70 24 87 6 9 7 31 3 49 -6 31 -6 31 28 27 19 -3 106 -23 194
-46 513 -131 1321 -234 1825 -232 387 1 882 61 1326 160 305 68 563 150 1032
326 409 154 602 219 622 207 8 -6 29 -34 45 -64 l31 -54 96 -5 c54 -3 102 -10
108 -16 18 -18 28 -2928 10 -2949 -7 -8 -25 -15 -39 -15 -15 0 -35 -6 -44 -12
-16 -12 -17 -144 -20 -1973 l-2 -1960 -56 -26 c-61 -30 -115 -86 -125 -132 -5
-22 -16 -33 -52 -48 -109 -46 -180 -97 -208 -151 -11 -22 -36 -39 -92 -65 -42
-19 -113 -59 -157 -88 -59 -39 -113 -64 -204 -94 -225 -75 -381 -161 -479
-265 -81 -85 -92 -117 -92 -269 0 -120 2 -132 27 -184 86 -175 361 -327 778
-428 328 -80 675 -120 1025 -119 135 1 256 3 270 4 14 2 104 11 200 21 739 79
1238 275 1357 535 23 52 25 63 21 182 -3 108 -7 133 -26 170 -49 93 -149 176
-307 255 -90 45 -282 119 -341 131 -17 4 -55 25 -85 48 -30 22 -94 60 -144 85
-73 35 -101 56 -149 110 -48 53 -77 74 -145 107 -75 36 -87 45 -95 75 -13 45
-62 93 -125 122 -28 12 -52 27 -52 33 -1 6 0 879 1 1941 1 1062 -1 1942 -5
1958 -6 22 -14 28 -45 33 -20 3 -43 10 -51 15 -12 7 -14 143 -15 851 0 1175
13 2090 30 2103 7 6 57 21 111 34 78 20 99 29 107 47 6 13 17 25 24 28 18 7
191 -61 499 -194 143 -62 339 -145 436 -185 672 -278 1439 -418 2054 -376 409
28 950 108 1124 166 61 21 68 19 80 -16 16 -46 13 -81 -9 -109 -11 -14 -20
-29 -20 -35 0 -5 7 1 16 13 12 17 19 20 34 12 10 -5 30 -10 44 -10 37 0 49
-31 41 -104 -8 -76 -11 -81 -56 -90 -47 -8 -52 4 -37 95 10 65 6 97 -10 73 -4
-6 -14 -13 -23 -16 -21 -8 -37 -135 -21 -164 7 -13 6 -55 -2 -129 -9 -75 -10
-112 -3 -117 7 -4 7 -23 -1 -60 -6 -29 -14 -73 -18 -98 -3 -24 -18 -59 -31
-77 l-25 -33 25 0 c42 0 50 -20 38 -96 -11 -70 -8 -84 13 -84 7 0 16 28 23 76
12 81 22 100 48 90 13 -5 15 -15 10 -53 -13 -92 -24 -123 -45 -123 -13 0 -20
-7 -20 -20 0 -15 -7 -20 -25 -20 -19 0 -29 9 -42 35 -16 34 -43 48 -43 23 0
-7 -15 -28 -32 -48 -32 -34 -33 -35 -2 -7 27 24 33 26 57 14 30 -14 31 -23 17
-117 -16 -96 -18 -100 -50 -100 -16 0 -30 -7 -34 -16 -9 -22 -8 -24 9 -24 8 0
20 -9 27 -20 15 -23 38 -27 38 -5 0 8 4 15 9 15 10 0 9 -16 -4 -132 -6 -57 -5
-68 8 -68 8 0 18 -7 21 -16 5 -13 2 -15 -14 -11 -26 7 -39 -18 -56 -107 -17
-85 -32 -105 -70 -87 -22 10 -28 9 -39 -6 -15 -20 -11 -33 10 -33 7 0 17 -9
20 -20 9 -29 22 -25 29 10 7 36 28 39 50 5 14 -21 14 -34 5 -97 -7 -40 -13
-91 -14 -113 -1 -22 -9 -57 -18 -77 -24 -52 -34 -172 -17 -203 11 -20 11 -44
1 -127 -7 -57 -18 -123 -26 -148 -7 -25 -19 -78 -25 -118 -10 -64 -10 -76 5
-98 14 -22 15 -35 6 -94 -15 -94 -14 -160 2 -161 6 0 2 -4 -10 -9 -38 -16 -69
-190 -40 -233 14 -21 13 -36 -3 -149 -10 -69 -22 -134 -28 -144 -5 -11 -15
-54 -21 -97 -11 -69 -11 -81 4 -103 15 -23 15 -37 5 -132 -7 -59 -17 -118 -22
-132 -6 -14 -16 -47 -22 -75 l-11 -50 -105 -7 c-58 -4 -111 -5 -119 -3 -10 4
-11 21 -6 77 6 61 12 76 35 98 30 28 45 87 42 165 0 22 -1 75 -1 118 0 90 -16
97 -26 12 -5 -35 -12 -55 -20 -55 -18 0 -22 25 -13 89 8 65 22 83 42 55 14
-19 15 -19 22 1 4 11 20 31 35 45 22 22 27 37 32 95 8 93 3 211 -9 208 -5 -1
-11 -13 -12 -25 -5 -33 -21 -46 -33 -28 -9 14 -6 65 7 132 6 29 34 39 34 13 0
-8 7 -15 15 -15 10 0 15 10 15 29 0 16 6 31 15 35 8 3 15 11 15 17 0 8 -4 8
-15 -1 -13 -11 -20 -10 -41 0 -21 12 -27 11 -42 -4 -9 -9 -17 -31 -18 -49 -1
-96 -16 -172 -37 -190 l-22 -18 21 10 c17 8 25 7 34 -4 7 -8 21 -15 31 -15 10
0 21 -5 24 -11 11 -18 -6 -128 -23 -149 -15 -18 -21 -19 -52 -7 -19 7 -41 16
-49 21 -11 7 -13 2 -8 -25 8 -48 -14 -211 -31 -231 -12 -15 -12 -16 6 -11 11
2 23 0 26 -6 4 -6 19 -11 33 -11 l26 0 -7 -72 c-9 -94 -25 -113 -80 -94 -21 7
-42 19 -47 27 -7 9 -8 -6 -3 -43 3 -31 1 -88 -6 -127 l-12 -70 -46 -6 c-219
-29 -341 -61 -367 -98 -12 -17 -15 -52 -15 -161 l0 -139 192 -194 c212 -214
261 -252 364 -288 318 -110 985 -124 1188 -26 31 16 436 338 491 392 10 10 21
88 31 223 6 66 5 69 -26 101 -17 18 -31 41 -30 51 4 38 0 74 -9 74 -5 0 -7
-18 -4 -40 7 -48 -2 -50 -89 -19 -47 18 -59 27 -64 48 -3 14 -9 35 -14 46 -7
15 -9 11 -7 -20 2 -48 21 -47 -213 -7 -201 35 -509 68 -722 78 l-148 7 0 46
c0 26 -7 56 -15 68 -13 19 -13 32 0 118 8 54 12 102 9 107 -3 5 1 19 9 32 9
13 23 64 32 114 16 86 16 92 -1 121 -15 26 -16 38 -6 113 7 45 12 107 12 136
0 49 -1 52 -19 42 -11 -5 -33 -10 -50 -10 -24 0 -32 5 -37 25 -7 27 0 84 17
148 9 36 11 37 55 37 29 0 47 -5 50 -14 3 -8 1 -47 -5 -87 -5 -40 -8 -75 -6
-77 9 -9 34 58 40 111 6 45 4 62 -9 82 -15 23 -15 32 0 121 13 78 14 100 4
119 -7 13 -10 27 -7 32 3 4 -16 6 -43 5 -36 -3 -49 0 -53 12 -8 21 13 166 26
184 14 19 86 16 94 -4 3 -9 2 -52 -3 -95 -5 -44 -6 -79 -3 -79 29 0 37 73 27
245 -1 28 1 80 6 118 7 58 6 67 -8 67 -19 0 -20 5 -6 30 9 17 6 18 -38 17
l-47 -2 1 50 c1 28 3 74 4 103 l3 52 54 0 c66 0 69 -6 53 -100 -7 -39 -9 -74
-6 -77 14 -14 26 16 37 90 10 70 10 79 -6 97 -17 18 -17 27 -7 84 7 35 12 82
12 105 0 23 7 55 15 70 7 15 20 67 27 115 11 78 10 91 -4 116 -15 26 -15 37
-2 112 8 46 12 102 8 126 l-6 42 -44 0 c-39 0 -44 3 -50 27 -7 28 10 142 23
153 16 15 91 20 96 7 5 -12 -9 -128 -19 -159 -6 -21 9 -24 25 -4 18 21 27 172
11 191 -10 13 -10 32 0 105 7 49 10 107 6 129 -5 33 -3 42 13 50 24 14 52 174
33 193 -7 7 -12 21 -12 33 1 20 1 20 18 -1 10 -12 32 -29 50 -38 32 -16 36
-25 59 -131 5 -25 15 -41 26 -43 21 -4 21 13 2 97 -14 57 -14 66 0 85 46 65
45 55 25 146 -15 65 -25 90 -45 108 -33 28 -46 27 -68 -3 -16 -22 -16 -25 -2
-25 9 0 18 7 21 15 7 17 22 19 42 6 13 -8 51 -143 52 -182 0 -8 -6 -23 -13
-33 -11 -15 -18 -17 -33 -8 -15 8 -23 6 -40 -9 l-22 -20 -20 21 c-19 20 -42
107 -42 157 0 17 -6 23 -21 23 -27 0 -19 24 10 28 19 3 21 8 16 33 -6 26 -4
30 23 35 l31 6 -6 89 c-5 75 -3 95 13 124 18 34 18 37 0 117 -10 46 -18 108
-17 138 2 44 -3 62 -19 83 -28 36 -63 35 -210 -2 -164 -42 -247 -51 -448 -51
-388 0 -776 54 -1067 147 -273 88 -468 187 -1095 558 -540 319 -854 479 -1145
584 l-100 36 -5 120 -5 119 -35 7 c-19 4 -111 9 -204 13 -93 3 -172 8 -175 11
-3 3 0 14 7 23 6 9 19 34 28 55 12 28 29 44 65 62 56 29 69 48 69 102 0 50
-22 80 -76 103 -27 12 -49 30 -59 49 -16 33 -50 54 -102 65 -22 5 -38 18 -53
43 l-21 35 67 70 c74 79 105 138 131 246 15 63 15 83 5 145 -33 190 -143 321
-321 382 -86 29 -134 30 -211 6z m-5630 -2977 c0 -32 -4 -44 -15 -44 -16 0
-21 52 -9 84 11 28 24 6 24 -40z m90 32 c6 -16 4 -47 -6 -92 -8 -38 -14 -70
-14 -71 0 -7 -17 -1 -35 13 -17 12 -19 24 -16 86 1 40 5 76 7 80 3 4 16 8 30
8 17 0 27 -8 34 -24z m10514 -181 c3 -8 3 -21 0 -29 -3 -8 2 -26 12 -41 25
-38 6 -75 -39 -75 -46 0 -57 15 -57 80 0 31 5 61 12 68 17 17 65 15 72 -3z
m-10620 -31 c21 -8 30 -81 16 -132 -14 -55 -30 -54 -30 2 0 30 -5 46 -15 50
-9 3 -15 18 -15 39 0 45 10 54 44 41z m-19 -278 c31 -1 38 -7 30 -28 -2 -7
-11 -53 -19 -102 -9 -49 -20 -94 -25 -99 -12 -12 -71 -1 -96 17 -18 13 -18 16
-1 112 10 54 20 102 23 107 3 5 17 5 32 1 14 -4 40 -8 56 -8z m10546 -279 c-6
-15 -17 -27 -25 -27 -8 0 -19 -7 -24 -17 -12 -21 -42 -10 -42 17 0 13 7 20 19
20 10 0 31 18 47 43 28 40 29 41 32 16 2 -14 -2 -37 -7 -52z m23 -93 c8 -20
-12 -156 -25 -169 -6 -6 -16 -5 -29 3 -16 10 -21 8 -34 -9 -8 -12 -19 -18 -25
-14 -14 8 -14 39 1 126 10 62 13 70 32 67 19 -3 21 -8 18 -57 -3 -49 -2 -54
12 -42 10 8 16 29 16 56 0 40 5 55 21 55 4 0 10 -7 13 -16z m-10681 -199 c34
-2 43 -11 30 -27 -5 -7 -16 -53 -23 -101 -15 -108 -24 -120 -82 -102 -40 11
-43 15 -46 51 -2 21 2 66 8 99 19 99 18 98 54 90 17 -5 43 -9 59 -10z m458
-16 c12 -22 39 -153 39 -189 0 -36 -30 -56 -59 -40 -11 5 -29 10 -40 10 -21 0
-34 32 -61 152 -16 72 -8 83 60 83 37 0 54 -5 61 -16z m-131 -187 c0 -20 -4
-23 -21 -19 -17 5 -20 2 -16 -14 4 -16 1 -20 -16 -17 -18 2 -23 11 -25 42 -4
44 12 70 23 37 9 -30 25 -26 25 7 1 26 1 26 15 8 8 -11 15 -31 15 -44z m10257
-320 c10 -6 10 -23 2 -72 -17 -108 -18 -110 -41 -110 -20 0 -21 3 -14 82 8 96
21 120 53 100z m-10709 -47 c50 -3 59 -9 43 -29 -6 -7 -19 -54 -27 -102 -8
-49 -21 -94 -27 -101 -16 -16 -96 3 -104 24 -7 18 16 181 29 206 6 13 15 16
26 11 9 -4 36 -8 60 -9z m10715 -262 c-4 -107 -13 -123 -67 -123 -25 0 -48 5
-51 10 -8 13 12 146 26 172 8 15 19 18 52 16 l42 -3 -2 -72z m-49 -219 c-2
-108 -26 -166 -56 -136 -12 12 7 149 24 169 19 23 33 8 32 -33z m-10768 -94
c23 0 34 -5 34 -14 0 -8 -4 -16 -8 -18 -4 -1 -15 -45 -24 -97 -9 -52 -21 -98
-26 -103 -11 -11 -89 5 -105 21 -8 8 -7 37 5 106 19 111 28 128 64 114 14 -5
41 -9 60 -9z m10726 -362 c7 -21 -17 -167 -29 -179 -6 -6 -17 -8 -23 -4 -15 9
-7 144 10 175 12 22 36 26 42 8z m-44 -507 c2 -12 -2 -54 -8 -92 -12 -69 -29
-94 -51 -72 -11 11 8 161 24 181 14 18 31 10 35 -17z m-43 -481 c10 -15 -16
-163 -30 -179 -41 -44 -47 64 -10 177 5 15 31 16 40 2z m8 -254 c7 -18 -10
-142 -23 -174 -9 -20 -16 -23 -52 -20 -51 4 -53 8 -43 125 l7 83 53 0 c37 0
55 -4 58 -14z m-56 -252 c9 -24 -15 -167 -30 -176 -6 -4 -17 -2 -24 5 -14 15
4 167 21 179 17 12 26 9 33 -8z m-393 -211 c6 -19 -7 -120 -17 -129 -3 -3 -11
-3 -17 1 -9 5 -10 26 -5 68 3 34 9 65 11 69 9 14 22 9 28 -9z m406 -50 c0 -66
-8 -74 -64 -71 -57 3 -67 19 -47 71 10 24 15 27 61 27 48 0 50 -1 50 -27z
m-90 -193 c0 -5 -4 -10 -9 -10 -6 0 -13 5 -16 10 -3 6 1 10 9 10 9 0 16 -4 16
-10z"/>
<path d="M11931 7464 c-19 -19 -20 -24 -7 -24 9 0 25 6 36 12 30 19 46 -5 65
-96 20 -97 11 -132 -31 -122 -19 5 -30 2 -39 -11 -13 -17 -15 -17 -35 3 -14
14 -29 52 -41 104 -18 77 -18 85 -3 107 8 14 13 27 11 30 -3 2 -13 -7 -23 -22
-17 -26 -17 -31 -1 -108 19 -91 35 -120 74 -139 20 -9 30 -24 36 -53 23 -102
28 -115 46 -115 18 0 18 2 1 83 -17 79 -17 83 0 102 38 42 39 57 19 145 -27
117 -63 151 -108 104z"/>
<path d="M1558 7148 c-16 -12 -16 -18 4 -97 20 -78 20 -85 5 -96 -10 -7 -17
-17 -17 -24 0 -11 -6 -13 -45 -15 -36 -2 -40 -52 -11 -161 15 -55 34 -107 43
-117 9 -10 28 -67 43 -126 22 -93 29 -107 48 -110 27 -4 27 -3 3 98 -11 45
-17 88 -14 96 3 8 19 14 38 14 28 0 34 5 50 40 18 40 18 43 -3 138 -13 54 -31
108 -42 122 -28 35 -36 55 -50 130 -6 35 -17 77 -23 93 -11 24 -14 26 -29 15z
m100 -338 c12 -47 21 -98 20 -115 -3 -30 -4 -30 -63 -30 l-60 0 -23 85 c-30
116 -28 133 23 141 78 12 78 12 103 -81z"/>
<path d="M1430 6996 c0 -8 -7 -22 -15 -30 -13 -13 -20 -13 -35 -4 -36 23 -42
0 -41 -161 0 -84 3 -156 6 -161 8 -13 42 -13 50 0 3 6 -5 14 -19 20 -29 11
-32 34 -19 138 5 45 8 52 24 47 16 -5 19 -1 19 25 0 20 10 44 25 62 25 29 34
78 15 78 -5 0 -10 -6 -10 -14z"/>
<path d="M12037 6990 c-9 -11 -17 -22 -17 -25 0 -11 24 -4 34 11 13 18 41 10
51 -14 9 -22 35 -143 35 -163 0 -8 -6 -24 -14 -35 -12 -15 -17 -17 -27 -6 -17
16 -24 15 -44 -5 -36 -35 -70 23 -82 139 -4 40 -2 62 7 73 7 9 10 18 7 21 -3
3 -13 -6 -22 -20 -15 -23 -16 -34 -6 -89 20 -104 30 -126 70 -151 32 -21 39
-32 50 -82 19 -90 21 -94 42 -94 15 0 19 5 15 18 -5 18 -20 79 -30 123 -4 20
1 33 19 53 30 32 32 70 9 162 -12 44 -24 71 -42 84 -31 25 -34 25 -55 0z"/>
<path d="M11440 6797 c0 -8 9 -22 20 -32 22 -20 27 -7 10 26 -12 22 -30 25
-30 6z"/>
<path d="M1470 6550 c0 -22 5 -40 10 -40 6 0 10 18 10 40 0 22 -4 40 -10 40
-5 0 -10 -18 -10 -40z"/>
<path d="M1672 6577 c-8 -10 -6 -35 8 -96 21 -86 20 -101 -7 -101 -9 0 -13 -3
-10 -7 12 -11 -14 -33 -39 -33 -17 0 -25 -7 -30 -27 -9 -35 30 -199 59 -244
11 -19 33 -79 47 -134 20 -77 31 -101 45 -104 12 -2 16 2 13 11 -15 37 -39
170 -34 183 3 10 19 15 44 15 36 0 40 3 57 39 17 38 17 42 -6 137 -13 54 -34
113 -46 131 -13 19 -30 64 -38 101 -35 148 -39 158 -63 129z m93 -299 c27 -91
40 -167 30 -177 -6 -5 -33 -11 -61 -15 -49 -6 -52 -5 -62 21 -18 46 -42 149
-42 181 0 29 3 31 43 35 23 2 50 4 59 5 13 2 21 -12 33 -50z"/>
<path d="M12138 6509 c-15 -16 -15 -19 -3 -19 8 0 15 5 15 10 0 19 39 10 51
-12 14 -27 38 -124 39 -159 0 -14 -6 -33 -13 -43 -12 -16 -16 -17 -35 -5 -18
11 -24 11 -40 -4 -31 -28 -50 -3 -69 90 -14 67 -15 89 -6 115 l12 33 -19 -24
c-24 -28 -24 -36 -2 -128 18 -72 39 -108 73 -118 18 -6 25 -23 49 -122 8 -31
16 -43 29 -43 17 0 18 4 6 58 -7 31 -15 68 -19 82 -5 20 -1 31 18 50 30 28 33
64 12 155 -10 41 -23 67 -41 82 -31 27 -35 27 -57 2z"/>
<path d="M1445 6414 c-11 -8 -30 -12 -42 -9 -13 3 -23 2 -24 -2 -4 -45 -1
-273 5 -290 5 -16 15 -23 32 -23 29 0 32 25 4 33 -18 5 -20 14 -20 96 0 84 1
91 20 91 16 0 20 7 20 30 0 19 7 33 20 40 11 6 20 20 20 30 0 24 -8 25 -35 4z"/>
<path d="M11360 6323 c0 -37 9 -49 44 -57 l28 -7 -7 -77 c-8 -89 -28 -122 -63
-103 -34 18 -52 13 -52 -14 0 -16 6 -25 16 -25 9 0 18 -9 21 -20 7 -27 27 -20
31 11 2 13 18 39 35 57 27 28 32 43 38 100 6 71 -2 102 -27 102 -8 0 -23 13
-32 30 -21 37 -32 38 -32 3z"/>
<path d="M1479 6119 c13 -11 27 -17 30 -13 7 7 -28 34 -43 34 -6 -1 0 -10 13
-21z"/>
<path d="M1510 5985 c0 -96 -7 -110 -49 -102 -18 4 -33 2 -37 -5 -8 -13 -6
-237 2 -285 4 -23 12 -33 24 -33 26 0 33 28 9 35 -10 4 -19 9 -20 13 0 4 -2
38 -3 76 -3 62 0 72 21 92 12 11 23 27 23 34 0 7 11 25 25 42 22 26 25 39 25
106 0 42 -5 84 -10 92 -7 10 -10 -10 -10 -65z"/>
<path d="M12237 6034 c-11 -15 -14 -24 -6 -24 6 0 18 8 25 18 12 16 14 16 34
-4 22 -21 49 -115 50 -170 0 -40 -23 -62 -46 -43 -14 11 -18 11 -29 -4 -14
-20 -38 -22 -53 -4 -9 10 -25 64 -46 161 -4 15 -9 26 -12 24 -4 -5 19 -129 32
-171 3 -10 23 -29 44 -42 35 -22 40 -31 51 -85 12 -63 32 -100 45 -87 5 4 1
43 -8 85 l-15 77 23 28 c28 33 30 63 8 156 -21 93 -63 130 -97 85z"/>
<path d="M12172 6028 c-7 -7 -12 -16 -12 -21 0 -5 7 -1 16 8 9 9 14 18 12 20
-2 3 -10 -1 -16 -7z"/>
<path d="M1797 6008 c-18 -13 -18 -17 -3 -75 9 -33 16 -74 16 -90 0 -35 -36
-73 -68 -73 -35 0 -38 -41 -11 -153 15 -63 32 -111 46 -128 13 -15 23 -33 23
-40 0 -38 45 -189 57 -189 18 0 16 18 -7 111 -12 44 -19 83 -16 87 2 4 25 7
50 7 27 0 46 5 46 11 0 6 7 25 15 42 15 28 14 38 -10 134 -15 59 -35 112 -46
124 -12 12 -27 52 -35 90 -7 38 -19 88 -26 112 -12 39 -15 42 -31 30z m72
-262 c17 -20 56 -205 45 -215 -5 -5 -32 -11 -61 -15 -44 -6 -53 -4 -61 11 -17
32 -44 160 -40 189 3 26 8 30 48 35 25 3 48 7 51 7 4 1 12 -4 18 -12z"/>
<path d="M657 6003 c-2 -5 -12 -51 -22 -103 -10 -52 -25 -104 -35 -115 -23
-27 -29 -47 -45 -145 -9 -54 -11 -86 -4 -88 10 -4 39 -55 39 -71 0 -5 -10 -12
-22 -14 -13 -2 -1 -5 26 -6 l49 -1 -6 -75 c-6 -62 -4 -75 8 -75 20 0 32 26 40
85 4 28 18 66 31 86 33 48 66 220 51 263 -14 43 -37 67 -57 61 -33 -11 -44 19
-31 88 7 34 14 70 17 79 5 17 -31 45 -39 31z m64 -253 c40 0 49 -12 25 -35 -7
-8 -16 -38 -20 -67 -4 -29 -12 -72 -18 -95 -12 -48 -22 -51 -90 -32 -44 12
-44 12 -23 124 23 119 22 118 57 111 17 -3 48 -6 69 -6z"/>
<path d="M11258 5861 c-25 -27 -25 -28 -4 -24 13 3 28 -2 35 -11 8 -9 24 -16
37 -16 26 0 45 21 24 28 -8 3 -24 16 -37 28 -13 13 -25 24 -26 24 -1 -1 -14
-14 -29 -29z"/>
<path d="M11315 5630 c-3 -5 -23 -10 -44 -10 -22 0 -44 -6 -51 -15 -11 -13 -8
-15 13 -15 16 0 31 -8 37 -20 13 -24 30 -17 30 12 0 12 7 30 17 40 9 10 13 18
10 18 -3 0 -9 -4 -12 -10z"/>
<path d="M12332 5560 c-14 -23 -10 -25 18 -8 32 20 53 -1 72 -73 21 -80 22
-123 4 -138 -11 -9 -19 -9 -36 1 -18 11 -23 11 -34 -4 -29 -39 -52 -14 -78 85
-13 52 -17 59 -13 27 11 -91 24 -119 64 -145 35 -21 40 -30 52 -90 12 -62 31
-96 46 -81 4 4 0 41 -9 83 l-16 77 26 34 c25 33 26 34 13 110 -14 85 -32 126
-56 136 -27 10 -40 7 -53 -14z"/>
<path d="M12260 5539 c-18 -33 -7 -41 12 -9 9 17 13 30 8 30 -5 0 -14 -9 -20
-21z"/>
<path d="M1547 5536 c-4 -10 -7 -51 -7 -92 0 -59 3 -74 15 -74 12 0 15 14 14
73 0 39 -4 81 -8 91 -7 18 -8 18 -14 2z"/>
<path d="M537 5427 c-3 -12 -12 -62 -19 -112 -10 -71 -18 -94 -35 -110 -30
-26 -57 -155 -51 -239 3 -33 -1 -79 -7 -101 -7 -22 -18 -78 -25 -125 -9 -60
-20 -93 -36 -112 -23 -28 -37 -79 -50 -178 -11 -90 9 -47 28 57 19 109 36 137
66 110 26 -23 98 -23 110 1 6 12 4 22 -9 34 -16 16 -18 15 -32 -5 l-15 -22
-13 28 c-10 22 -10 41 -1 91 15 78 15 116 2 116 -24 0 -7 18 21 24 43 8 61 -8
53 -49 -5 -30 -4 -32 19 -28 20 4 27 13 32 41 4 21 15 47 26 58 13 14 27 57
40 122 28 142 17 180 -63 206 -22 7 -24 50 -6 125 11 47 10 53 -9 71 -21 19
-21 19 -26 -3z m50 -257 c39 -10 50 -17 42 -26 -5 -6 -17 -52 -25 -100 -8 -49
-21 -94 -27 -101 -14 -14 -103 3 -110 21 -6 15 20 174 33 204 6 13 16 22 23
19 6 -2 35 -10 64 -17z"/>
<path d="M1911 5433 c-11 -12 -10 -27 7 -94 l20 -80 -25 -29 c-15 -18 -34 -30
-49 -30 -17 0 -25 -7 -30 -27 -10 -40 31 -209 61 -253 14 -20 25 -43 25 -51 0
-38 44 -179 57 -179 17 0 17 6 -8 101 -13 50 -17 85 -12 90 5 5 27 11 48 13
32 3 40 9 51 36 8 18 14 41 14 52 0 46 -43 199 -63 225 -13 16 -31 68 -44 127
-13 55 -26 103 -30 107 -5 4 -14 1 -22 -8z m79 -262 c16 -32 51 -187 45 -204
-4 -9 -26 -17 -58 -21 -64 -9 -69 -4 -97 116 -24 104 -20 115 43 121 23 2 45
4 49 5 4 1 12 -7 18 -17z"/>
<path d="M11193 5433 c-4 -9 -16 -26 -28 -38 -11 -11 -14 -14 -5 -7 23 17 37
15 76 -9 l34 -21 0 21 c0 12 -6 21 -15 21 -9 0 -21 11 -27 25 -13 29 -26 32
-35 8z"/>
<path d="M1459 5343 c-2 -30 3 -88 7 -92 2 -2 15 1 28 7 20 9 24 18 23 49 0
21 -5 41 -11 45 -20 14 -46 8 -47 -9z"/>
<path d="M1459 5105 c-13 -50 38 -88 61 -46 15 28 13 31 -19 31 -20 0 -31 6
-33 18 -4 15 -5 14 -9 -3z"/>
<path d="M12423 5096 c-25 -14 -21 -26 9 -26 10 0 18 7 18 15 0 26 30 16 50
-17 13 -22 20 -27 20 -15 0 23 -35 57 -57 56 -10 -1 -28 -7 -40 -13z"/>
<path d="M12364 5076 c-14 -22 -15 -34 -6 -69 l11 -42 -6 46 c-4 35 -1 50 12
63 10 9 15 19 12 22 -3 3 -13 -6 -23 -20z"/>
<path d="M12521 5014 c0 -11 3 -14 6 -6 3 7 2 16 -1 19 -3 4 -6 -2 -5 -13z"/>
<path d="M12532 4970 c0 -14 2 -19 5 -12 2 6 2 18 0 25 -3 6 -5 1 -5 -13z"/>
<path d="M12372 4945 c0 -11 3 -29 8 -40 11 -25 11 1 0 35 -6 20 -8 21 -8 5z"/>
<path d="M12540 4917 c0 -13 -6 -32 -14 -43 -12 -15 -17 -17 -27 -6 -18 17
-39 15 -39 -3 0 -20 -29 -19 -53 3 -16 13 -19 14 -15 2 2 -8 14 -20 25 -25 41
-21 51 -36 62 -95 10 -50 16 -60 32 -60 15 0 19 5 16 18 -30 106 -30 121 -3
153 22 26 36 79 21 79 -3 0 -5 -10 -5 -23z"/>
<path d="M2031 4863 c-12 -13 -11 -26 4 -93 10 -43 15 -84 13 -92 -3 -7 -23
-22 -44 -33 -49 -25 -54 -32 -54 -75 0 -52 44 -207 66 -231 10 -11 24 -48 31
-82 12 -60 27 -87 39 -74 4 4 2 32 -5 63 -15 65 -8 77 40 72 31 -3 36 1 52 36
9 21 17 47 17 57 0 43 -45 196 -66 224 -12 17 -31 71 -43 125 -26 113 -31 123
-50 103z m88 -292 c40 -150 41 -161 31 -182 -7 -13 -17 -18 -29 -14 -10 3 -31
1 -47 -5 -38 -15 -46 -3 -73 105 -29 116 -28 125 12 126 17 0 41 4 52 8 30 12
44 3 54 -38z"/>
<path d="M1498 4833 c-3 -10 -2 -65 0 -123 5 -103 4 -106 -23 -138 -25 -30
-27 -37 -26 -131 1 -55 4 -107 7 -115 3 -8 21 -24 40 -35 33 -20 34 -22 34
-83 0 -35 3 -73 6 -84 4 -14 -1 -28 -14 -40 -31 -29 -42 -68 -42 -150 0 -88
16 -127 60 -143 l31 -10 -3 -88 -3 -88 -165 -12 c-415 -32 -729 -75 -967 -133
-61 -15 -117 -24 -123 -20 -8 5 -10 25 -5 61 6 48 4 55 -14 67 -19 11 -21 10
-21 -9 0 -26 -17 -59 -31 -59 -6 0 -25 12 -43 27 l-31 26 -3 -24 c-2 -13 -17
-38 -32 -56 -19 -21 -31 -49 -36 -79 -5 -37 -16 -58 -49 -92 l-43 -44 4 -77
c8 -162 19 -258 34 -278 22 -32 552 -437 602 -462 62 -29 187 -58 307 -70 129
-14 386 -14 483 -1 40 5 116 14 168 21 208 25 379 69 510 131 81 39 97 53 333
287 137 135 256 259 264 276 13 25 15 55 10 182 -7 178 -11 189 -96 227 -65
29 -220 68 -260 66 -14 -1 -28 -1 -31 0 -3 2 -14 4 -25 6 -11 2 -33 6 -49 10
-27 6 -28 5 -23 -18 5 -17 2 -30 -8 -38 -19 -15 -27 -9 -41 33 -11 32 -11 32
-95 39 -46 3 -166 6 -265 7 -156 1 -183 3 -188 17 -3 9 -6 52 -6 96 0 71 3 84
25 110 23 27 25 38 25 119 0 97 4 89 -71 153 -16 13 -19 30 -19 100 0 75 3 88
25 114 23 27 25 38 25 126 0 105 4 95 -71 160 -11 9 -19 29 -19 46 0 19 -7 33
-20 40 -26 14 -27 57 -1 65 22 7 37 85 18 97 -21 13 -45 9 -49 -9z m117 -389
l0 -99 -36 2 c-29 2 -38 -2 -42 -17 -7 -26 -32 -25 -57 0 -16 16 -20 33 -20
89 0 38 5 82 10 96 9 23 14 26 41 20 25 -6 34 -3 46 15 13 19 17 20 36 7 20
-13 22 -23 22 -113z m35 -405 c12 -21 13 -159 2 -177 -5 -7 -23 -11 -41 -10
-22 2 -36 -3 -42 -15 -14 -23 -35 -21 -53 5 -11 15 -16 45 -16 93 0 84 17 119
55 109 16 -4 30 0 40 10 18 18 41 12 55 -15z m714 -535 c21 -25 36 -63 53
-132 24 -101 24 -142 -3 -142 -12 0 -15 6 -10 25 9 35 -3 73 -24 80 -12 4 -22
25 -31 63 -13 51 -17 57 -41 60 -33 4 -35 11 -8 42 11 13 20 27 20 32 0 16 15
6 44 -28z m-2116 -73 c17 -10 2 -22 -56 -44 -38 -15 -43 -15 -48 -2 -4 8 -3
27 0 41 6 24 9 25 49 19 23 -4 48 -10 55 -14z"/>
<path d="M12506 4633 c-28 -5 -28 -5 -7 -20 20 -13 24 -13 47 2 33 21 49 8 68
-54 17 -53 21 -35 6 21 -15 53 -36 62 -114 51z"/>
<path d="M12454 4596 c-3 -8 -4 -25 -2 -38 3 -17 5 -13 9 15 5 38 2 47 -7 23z"/>
<path d="M500 4553 c0 -32 -32 -178 -41 -189 -13 -16 -55 -19 -64 -4 -11 18
-25 10 -25 -15 0 -21 -5 -25 -30 -25 -19 0 -30 -5 -30 -14 0 -12 7 -13 32 -5
42 12 68 3 68 -23 0 -14 5 -18 16 -14 9 3 20 6 25 6 6 0 7 15 3 35 -4 21 -2
35 4 35 14 0 38 65 46 125 4 28 10 60 13 73 3 13 1 22 -6 22 -6 0 -11 -3 -11
-7z"/>
<path d="M12461 4514 c0 -11 3 -14 6 -6 3 7 2 16 -1 19 -3 4 -6 -2 -5 -13z"/>
<path d="M12632 4490 c0 -14 2 -19 5 -12 2 6 2 18 0 25 -3 6 -5 1 -5 -13z"/>
<path d="M12472 4470 c0 -14 2 -19 5 -12 2 6 2 18 0 25 -3 6 -5 1 -5 -13z"/>
<path d="M12481 4430 c-1 -18 16 -46 23 -40 2 3 -2 16 -9 30 -8 15 -14 19 -14
10z"/>
<path d="M10981 4414 c0 -11 3 -14 6 -6 3 7 2 16 -1 19 -3 4 -6 -2 -5 -13z"/>
<path d="M12553 4405 c-10 -26 22 -120 42 -123 16 -4 17 1 11 41 -4 28 -3 48
3 52 6 3 16 16 22 28 l12 22 -22 -20 c-21 -18 -23 -18 -32 -2 -12 21 -28 22
-36 2z"/>
<path d="M2168 4223 c-10 -12 -12 -26 -7 -43 4 -14 7 -39 8 -56 1 -31 -19 -49
-64 -56 -10 -2 -26 -15 -34 -30 -14 -24 -14 -28 1 -45 9 -10 26 -56 38 -102
12 -47 28 -94 36 -105 8 -11 14 -37 14 -58 0 -27 4 -38 15 -38 9 0 15 9 15 23
0 37 14 51 38 38 11 -6 25 -11 30 -11 20 0 20 29 0 50 -20 21 -36 22 -81 4
-20 -7 -39 31 -61 123 -23 95 -20 107 29 113 32 4 40 9 40 25 0 11 7 20 15 20
24 0 56 -59 74 -141 22 -97 27 -113 33 -98 8 22 -45 206 -66 228 -12 13 -27
52 -36 96 -9 41 -17 75 -19 77 -1 2 -10 -5 -18 -14z"/>
<path d="M12603 4184 c-9 -4 -9 -11 -1 -30 14 -29 24 -30 38 -4 17 32 -1 48
-37 34z"/>
<path d="M276 4123 c-3 -3 -6 -15 -6 -26 0 -10 -11 -32 -24 -48 -24 -28 -38
-79 -52 -184 -11 -82 12 -39 26 50 16 96 25 124 45 131 8 3 22 -1 30 -10 25
-25 90 -21 110 6 14 21 14 24 0 34 -8 6 -15 17 -15 25 0 8 -8 2 -18 -13 -20
-34 -26 -35 -40 -4 -12 26 -45 49 -56 39z"/>
<path d="M371 3903 c-21 -122 -23 -126 -76 -121 -43 5 -45 4 -45 -19 0 -22 -4
-25 -25 -21 -18 4 -26 0 -31 -14 -8 -27 -3 -29 34 -11 37 18 59 12 64 -15 5
-31 48 -10 48 23 0 14 6 36 14 48 8 12 22 60 30 106 18 96 19 101 8 101 -4 0
-14 -35 -21 -77z"/>
</g>
</svg>
